<?xml version="1.0" encoding="utf-8"?>
<!-- Generator: Adobe Illustrator 17.0.0, SVG Export Plug-In . SVG Version: 6.00 Build 0)  -->
<!DOCTYPE svg PUBLIC "-//W3C//DTD SVG 1.1//EN" "http://www.w3.org/Graphics/SVG/1.1/DTD/svg11.dtd">
<svg version="1.1" id="Layer_1" xmlns="http://www.w3.org/2000/svg" xmlns:xlink="http://www.w3.org/1999/xlink" x="0px" y="0px"
	 width="294.93px" height="407.14px" viewBox="0 0 294.93 407.14" enable-background="new 0 0 294.93 407.14" xml:space="preserve">
<g>
	<path fill="#FBDB4A" d="M265.56,0c-15.86,0-28.79,12.92-28.79,29.37v95.17h58.16V29.37C294.93,12.92,282.01,0,265.56,0z
		 M147.47,348.98c-47.72,0-86.65-37.35-89.16-84.44H0.08c2.57,79.4,67.93,142.6,147.39,142.6c79.45,0,144.81-63.2,147.38-142.6
		h-58.22C234.12,311.63,195.19,348.98,147.47,348.98z M58.17,29.37C58.17,12.92,45.24,0,28.79,0C12.93,0,0,12.92,0,29.37v95.17
		h58.17V29.37z"/>
</g>
<g>
	<path fill="#3EB5F1" d="M43.707,159.052c0,2.602-2.137,4.646-4.646,4.646H11.369v18.678h21.094c2.509,0,4.646,2.044,4.646,4.646
		s-2.137,4.646-4.646,4.646H11.369v22.953c0,2.602-2.137,4.646-4.646,4.646c-2.602,0-4.646-2.044-4.646-4.646v-55.57
		c0-2.602,2.044-4.646,4.646-4.646h0.093c0.093,0,0.093,0,0.186,0h32.06C41.57,154.406,43.707,156.45,43.707,159.052z"/>
	<path fill="#3EB5F1" d="M101.14,196.409v18.213c0,2.695-1.952,4.646-4.646,4.646c-1.858,0-4.46-1.952-4.46-4.646
		c-3.996,3.345-8.456,4.646-13.753,4.646c-13.103,0-23.51-9.757-23.51-22.86s10.408-23.51,23.51-23.51
		S101.14,183.306,101.14,196.409z M92.033,196.409c0-7.806-5.947-14.404-13.753-14.404s-14.404,6.598-14.404,14.404
		s6.598,13.753,14.404,13.753S92.033,204.214,92.033,196.409z"/>
	<path fill="#3EB5F1" d="M183.939,191.856c0.093,0.186,0.093,0.278,0.093,0.464v22.581c0,2.602-2.138,4.646-4.646,4.646
		s-4.554-2.044-4.554-4.646V192.32c0-0.186,0-0.279,0-0.464c0-0.093,0-0.186,0-0.372c0-5.204-4.274-9.385-9.479-9.385
		c-5.203,0-9.478,4.182-9.478,9.385v23.417c0,2.602-2.045,4.646-4.554,4.646c-2.509,0-4.646-2.044-4.646-4.646v-23.417
		c0-5.204-4.182-9.385-9.386-9.385c-5.204,0-9.478,4.182-9.478,9.385v23.417c0,2.602-2.044,4.646-4.554,4.646
		c-2.602,0-4.646-2.044-4.646-4.646v-23.417c0-10.222,8.363-18.585,18.678-18.585c5.576,0,10.594,2.416,14.032,6.412
		c3.438-3.996,8.456-6.412,14.031-6.412c10.315,0,18.679,8.363,18.679,18.585C184.032,191.67,184.032,191.762,183.939,191.856z"/>
	<path fill="#3EB5F1" d="M203.178,162.212c-0.836-0.836-1.394-2.044-1.394-3.252s0.558-2.416,1.394-3.252
		c0.837-0.836,2.045-1.394,3.253-1.394s2.416,0.558,3.252,1.394c0.837,0.836,1.301,2.044,1.301,3.252s-0.464,2.416-1.301,3.252
		c-0.836,0.836-2.044,1.301-3.252,1.301S204.015,163.048,203.178,162.212z M201.784,214.808v-37.449
		c0-2.509,2.044-4.554,4.646-4.554c2.509,0,4.553,2.044,4.553,4.554v37.449c0,2.602-2.044,4.646-4.553,4.646
		C203.828,219.454,201.784,217.41,201.784,214.808z"/>
	<path fill="#3EB5F1" d="M228.827,214.808v-60.495c0-2.509,2.044-4.553,4.646-4.553c2.509,0,4.553,2.044,4.553,4.553v60.495
		c0,2.602-2.044,4.646-4.553,4.646C230.871,219.454,228.827,217.41,228.827,214.808z"/>
	<path fill="#3EB5F1" d="M292.853,177.638v45.813c0,10.5-8.642,19.143-19.235,19.143c-7.342,0-13.939-4.182-17.191-10.779
		c-1.115-2.23-0.187-5.018,2.137-6.133c2.23-1.115,5.019-0.093,6.041,2.137c1.766,3.438,5.203,5.576,9.014,5.576
		c5.575,0,10.036-4.46,10.036-9.943v-6.691c-2.788,1.673-6.041,2.602-9.572,2.602c-10.222,0-18.585-8.271-18.678-18.492
		c0-0.093,0-0.093,0-0.093v-23.139c0-2.509,2.044-4.554,4.554-4.554c2.509,0,4.553,2.044,4.553,4.554v23.045
		c0,5.297,4.368,9.571,9.571,9.571c5.297,0,9.572-4.274,9.572-9.571v-23.045c0-2.509,2.044-4.554,4.553-4.554
		C290.809,173.084,292.853,175.129,292.853,177.638z"/>
</g>
</svg>
