<?xml version="1.0" encoding="UTF-8"?>
<svg width="256px" height="30px" viewBox="0 0 256 30" version="1.1" xmlns="http://www.w3.org/2000/svg" xmlns:xlink="http://www.w3.org/1999/xlink">
    <!-- Generator: Sketch 40.3 (33839) - http://www.bohemiancoding.com/sketch -->
    <title>Logo</title>
    <desc>Created with Sketch.</desc>
    <defs></defs>
    <g id="Page-1" stroke="none" stroke-width="1" fill="none" fill-rule="evenodd">
        <g id="UVCA_Index" transform="translate(-80.000000, -35.000000)">
            <g id="Hero" transform="translate(80.000000, 35.000000)">
                <g id="Logo">
                    <path d="M100.76,5.33 L100.76,9.41 C100.76,10.04 100.86,10.68 101.26,11.19 C101.74,11.82 102.58,12.15 103.44,12.15 C104.3,12.15 105.14,11.82 105.62,11.19 C106.02,10.68 106.12,10.04 106.12,9.41 L106.12,5.33 L104.82,5.33 L104.82,9.52 C104.82,10.03 104.65,10.34 104.5,10.51 C104.31,10.74 103.96,10.97 103.44,10.97 C102.92,10.97 102.57,10.74 102.38,10.51 C102.23,10.34 102.06,10.03 102.06,9.52 L102.06,5.33 L100.76,5.33 Z M109.34,5.33 L108.04,5.33 L108.04,12 L109.34,12 L109.34,9.16 L109.49,9.01 L111.86,12 L113.58,12 L110.61,8.41 L113.43,5.33 L111.79,5.33 L109.34,8.15 L109.34,5.33 Z M114.8,5.33 L114.8,12 L116.1,12 L116.1,9.32 L116.26,9.32 L118.04,12 L119.66,12 L117.58,9.19 C117.9,9.13 118.14,9.02 118.31,8.9 C118.83,8.55 119.09,7.98 119.09,7.33 C119.09,6.83 118.94,6.26 118.43,5.83 C118.12,5.57 117.65,5.33 116.73,5.33 L114.8,5.33 Z M116.1,6.39 L116.49,6.39 C116.73,6.39 117.75,6.4 117.75,7.39 C117.75,8.37 116.72,8.4 116.47,8.4 L116.1,8.4 L116.1,6.39 Z M125.48,12 L126.88,12 L124.09,5.33 L123.07,5.33 L120.2,12 L121.61,12 L122.2,10.6 L124.89,10.6 L125.48,12 Z M122.61,9.54 L123.56,7.14 L124.51,9.54 L122.61,9.54 Z M128.06,5.33 L128.06,12 L129.36,12 L129.36,5.33 L128.06,5.33 Z M132.58,12 L132.58,7.54 L136.64,12 L137.54,12 L137.54,5.33 L136.24,5.33 L136.24,9.78 L132.18,5.33 L131.28,5.33 L131.28,12 L132.58,12 Z M139.46,5.33 L139.46,12 L140.76,12 L140.76,5.33 L139.46,5.33 Z M147.22,12 L148.62,12 L145.83,5.33 L144.81,5.33 L141.94,12 L143.35,12 L143.94,10.6 L146.63,10.6 L147.22,12 Z M144.35,9.54 L145.3,7.14 L146.25,9.54 L144.35,9.54 Z M151.1,12 L151.1,7.54 L155.16,12 L156.06,12 L156.06,5.33 L154.76,5.33 L154.76,9.78 L150.7,5.33 L149.8,5.33 L149.8,12 L151.1,12 Z M159.97,5.33 L162.77,12 L163.55,12 L166.37,5.33 L164.95,5.33 L163.17,9.81 L161.39,5.33 L159.97,5.33 Z M171.25,5.33 L167.55,5.33 L167.55,12 L171.25,12 L171.25,10.88 L168.85,10.88 L168.85,9.06 L171.15,9.06 L171.15,7.94 L168.85,7.94 L168.85,6.45 L171.25,6.45 L171.25,5.33 Z M174.21,12 L174.21,7.54 L178.27,12 L179.17,12 L179.17,5.33 L177.87,5.33 L177.87,9.78 L173.81,5.33 L172.91,5.33 L172.91,12 L174.21,12 Z M184.69,6.45 L184.69,5.33 L180.39,5.33 L180.39,6.45 L181.89,6.45 L181.89,12 L183.19,12 L183.19,6.45 L184.69,6.45 Z M185.91,5.33 L185.91,9.41 C185.91,10.04 186.01,10.68 186.41,11.19 C186.89,11.82 187.73,12.15 188.59,12.15 C189.45,12.15 190.29,11.82 190.77,11.19 C191.17,10.68 191.27,10.04 191.27,9.41 L191.27,5.33 L189.97,5.33 L189.97,9.52 C189.97,10.03 189.8,10.34 189.65,10.51 C189.46,10.74 189.11,10.97 188.59,10.97 C188.07,10.97 187.72,10.74 187.53,10.51 C187.38,10.34 187.21,10.03 187.21,9.52 L187.21,5.33 L185.91,5.33 Z M193.19,5.33 L193.19,12 L194.49,12 L194.49,9.32 L194.65,9.32 L196.43,12 L198.05,12 L195.97,9.19 C196.29,9.13 196.53,9.02 196.7,8.9 C197.22,8.55 197.48,7.98 197.48,7.33 C197.48,6.83 197.33,6.26 196.82,5.83 C196.51,5.57 196.04,5.33 195.12,5.33 L193.19,5.33 Z M194.49,6.39 L194.88,6.39 C195.12,6.39 196.14,6.4 196.14,7.39 C196.14,8.37 195.11,8.4 194.86,8.4 L194.49,8.4 L194.49,6.39 Z M203.03,5.33 L199.33,5.33 L199.33,12 L203.03,12 L203.03,10.88 L200.63,10.88 L200.63,9.06 L202.93,9.06 L202.93,7.94 L200.63,7.94 L200.63,6.45 L203.03,6.45 L203.03,5.33 Z M212.26,10.24 C211.87,10.7 211.32,10.97 210.7,10.97 C209.58,10.97 208.44,10.17 208.44,8.69 C208.44,7.46 209.31,6.36 210.65,6.36 C210.89,6.36 211.65,6.41 212.26,7.11 L212.26,5.59 C211.65,5.26 211.09,5.18 210.62,5.18 C209.67,5.18 208.84,5.43 208.17,6.06 C207.6,6.59 207.1,7.46 207.1,8.67 C207.1,9.65 207.4,10.48 208.17,11.22 C208.73,11.75 209.44,12.15 210.61,12.15 C211.33,12.15 211.86,11.97 212.26,11.76 L212.26,10.24 Z M218.4,12 L219.8,12 L217.01,5.33 L215.99,5.33 L213.12,12 L214.53,12 L215.12,10.6 L217.81,10.6 L218.4,12 Z M215.53,9.54 L216.48,7.14 L217.43,9.54 L215.53,9.54 Z M220.98,5.33 L220.98,12 L222.28,12 L222.28,9.53 L223.12,9.53 C223.89,9.53 224.44,9.31 224.81,8.94 C225.32,8.43 225.36,7.71 225.36,7.45 C225.36,6.97 225.22,6.32 224.68,5.84 C224.19,5.41 223.67,5.33 222.92,5.33 L220.98,5.33 Z M222.28,6.45 L222.73,6.45 C223.04,6.45 223.38,6.47 223.65,6.66 C223.84,6.8 224.02,7.05 224.02,7.42 C224.02,7.71 223.9,8.01 223.66,8.2 C223.38,8.41 223.06,8.41 222.81,8.41 L222.28,8.41 L222.28,6.45 Z M226.72,5.33 L226.72,12 L228.02,12 L228.02,5.33 L226.72,5.33 Z M233.54,6.45 L233.54,5.33 L229.24,5.33 L229.24,6.45 L230.74,6.45 L230.74,12 L232.04,12 L232.04,6.45 L233.54,6.45 Z M238.91,12 L240.31,12 L237.52,5.33 L236.5,5.33 L233.63,12 L235.04,12 L235.63,10.6 L238.32,10.6 L238.91,12 Z M236.04,9.54 L236.99,7.14 L237.94,9.54 L236.04,9.54 Z M241.49,5.33 L241.49,12 L244.85,12 L244.85,10.88 L242.79,10.88 L242.79,5.33 L241.49,5.33 Z M253.9,8.76 C253.76,8.95 253.52,9.24 253.07,9.68 L251.97,8.42 L252.25,8.25 C252.96,7.82 253.19,7.25 253.19,6.77 C253.19,5.95 252.56,5.18 251.4,5.18 C250.16,5.18 249.56,6.01 249.56,6.84 C249.56,7.49 250,8.01 250.23,8.24 L249.71,8.55 C249.41,8.73 248.64,9.25 248.64,10.24 C248.64,11.2 249.36,12.15 250.73,12.15 C251.79,12.15 252.57,11.53 252.88,11.25 L253.53,12 L255.14,12 L253.79,10.47 L253.94,10.32 C254.13,10.13 254.26,10.01 254.66,9.51 L253.9,8.76 Z M252.15,10.43 C251.93,10.65 251.46,11.01 250.92,11.01 C250.36,11.01 249.94,10.63 249.94,10.13 C249.94,9.62 250.38,9.25 250.89,8.98 L252.15,10.43 Z M251.06,7.37 C250.92,7.2 250.78,6.99 250.78,6.74 C250.78,6.44 250.99,6.12 251.46,6.12 C251.91,6.12 252.11,6.45 252.11,6.78 C252.11,7 252.01,7.27 251.65,7.52 L251.35,7.73 L251.06,7.37 Z M100.76,18.33 L100.76,25 L102.06,25 L102.06,22.53 L102.9,22.53 C103.67,22.53 104.22,22.31 104.59,21.94 C105.1,21.43 105.14,20.71 105.14,20.45 C105.14,19.97 105,19.32 104.46,18.84 C103.97,18.41 103.45,18.33 102.7,18.33 L100.76,18.33 Z M102.06,19.45 L102.51,19.45 C102.82,19.45 103.16,19.47 103.43,19.66 C103.62,19.8 103.8,20.05 103.8,20.42 C103.8,20.71 103.68,21.01 103.44,21.2 C103.16,21.41 102.84,21.41 102.59,21.41 L102.06,21.41 L102.06,19.45 Z M106.5,18.33 L106.5,25 L107.8,25 L107.8,22.32 L107.96,22.32 L109.74,25 L111.36,25 L109.28,22.19 C109.6,22.13 109.84,22.02 110.01,21.9 C110.53,21.55 110.79,20.98 110.79,20.33 C110.79,19.83 110.64,19.26 110.13,18.83 C109.82,18.57 109.35,18.33 108.43,18.33 L106.5,18.33 Z M107.8,19.39 L108.19,19.39 C108.43,19.39 109.45,19.4 109.45,20.39 C109.45,21.37 108.42,21.4 108.17,21.4 L107.8,21.4 L107.8,19.39 Z M112.64,18.33 L112.64,25 L113.94,25 L113.94,18.33 L112.64,18.33 Z M115.12,18.33 L117.92,25 L118.7,25 L121.52,18.33 L120.1,18.33 L118.32,22.81 L116.54,18.33 L115.12,18.33 Z M126.62,25 L128.02,25 L125.23,18.33 L124.21,18.33 L121.34,25 L122.75,25 L123.34,23.6 L126.03,23.6 L126.62,25 Z M123.75,22.54 L124.7,20.14 L125.65,22.54 L123.75,22.54 Z M132.46,19.45 L132.46,18.33 L128.16,18.33 L128.16,19.45 L129.66,19.45 L129.66,25 L130.96,25 L130.96,19.45 L132.46,19.45 Z M137.38,18.33 L133.68,18.33 L133.68,25 L137.38,25 L137.38,23.88 L134.98,23.88 L134.98,22.06 L137.28,22.06 L137.28,20.94 L134.98,20.94 L134.98,19.45 L137.38,19.45 L137.38,18.33 Z M145.47,18.33 L141.77,18.33 L141.77,25 L145.47,25 L145.47,23.88 L143.07,23.88 L143.07,22.06 L145.37,22.06 L145.37,20.94 L143.07,20.94 L143.07,19.45 L145.47,19.45 L145.47,18.33 Z M152.82,25.26 L154.13,25.13 L153.05,24.04 C153.41,23.64 153.93,22.92 153.93,21.67 C153.93,19.64 152.47,18.18 150.37,18.18 C148.27,18.18 146.81,19.64 146.81,21.67 C146.81,23.71 148.27,25.15 150.37,25.15 C151.11,25.15 151.68,25.02 152.27,24.67 L152.82,25.26 Z M151.38,22.32 L150.03,22.43 L151.39,23.75 C151.15,23.87 150.85,23.97 150.4,23.97 C149.06,23.97 148.15,23.01 148.15,21.67 C148.15,20.32 149.07,19.36 150.37,19.36 C151.67,19.36 152.59,20.32 152.59,21.67 C152.59,22.41 152.36,22.83 152.15,23.11 L151.38,22.32 Z M155.53,18.33 L155.53,22.41 C155.53,23.04 155.63,23.68 156.03,24.19 C156.51,24.82 157.35,25.15 158.21,25.15 C159.07,25.15 159.91,24.82 160.39,24.19 C160.79,23.68 160.89,23.04 160.89,22.41 L160.89,18.33 L159.59,18.33 L159.59,22.52 C159.59,23.03 159.42,23.34 159.27,23.51 C159.08,23.74 158.73,23.97 158.21,23.97 C157.69,23.97 157.34,23.74 157.15,23.51 C157,23.34 156.83,23.03 156.83,22.52 L156.83,18.33 L155.53,18.33 Z M162.81,18.33 L162.81,25 L164.11,25 L164.11,18.33 L162.81,18.33 Z M169.63,19.45 L169.63,18.33 L165.33,18.33 L165.33,19.45 L166.83,19.45 L166.83,25 L168.13,25 L168.13,19.45 L169.63,19.45 Z M172.67,25 L173.97,25 L173.97,21.95 L176.32,18.33 L174.78,18.33 L173.35,20.65 L171.92,18.33 L170.38,18.33 L172.67,21.95 L172.67,25 Z M184.73,25 L186.13,25 L183.34,18.33 L182.32,18.33 L179.45,25 L180.86,25 L181.45,23.6 L184.14,23.6 L184.73,25 Z M181.86,22.54 L182.81,20.14 L183.76,22.54 L181.86,22.54 Z M191.06,18.96 C190.38,18.26 189.59,18.18 189.17,18.18 C187.69,18.18 187.03,19.16 187.03,20.14 C187.03,20.82 187.34,21.19 187.56,21.38 C187.9,21.68 188.32,21.84 188.67,21.96 C189.05,22.09 189.45,22.22 189.7,22.45 C189.88,22.62 189.96,22.81 189.96,23.05 C189.96,23.61 189.52,23.97 188.93,23.97 C188.46,23.97 187.85,23.73 187.53,23.08 L186.68,23.89 C187.03,24.4 187.75,25.15 188.98,25.15 C190.36,25.15 191.3,24.26 191.3,22.96 C191.3,22.28 191.03,21.83 190.73,21.56 C190.39,21.25 189.9,21.07 189.38,20.89 C188.96,20.74 188.74,20.66 188.58,20.51 C188.42,20.37 188.37,20.22 188.37,20.06 C188.37,19.72 188.59,19.28 189.29,19.28 C189.53,19.28 189.99,19.33 190.38,19.85 L191.06,18.96 Z M196.6,18.96 C195.92,18.26 195.13,18.18 194.71,18.18 C193.23,18.18 192.57,19.16 192.57,20.14 C192.57,20.82 192.88,21.19 193.1,21.38 C193.44,21.68 193.86,21.84 194.21,21.96 C194.59,22.09 194.99,22.22 195.24,22.45 C195.42,22.62 195.5,22.81 195.5,23.05 C195.5,23.61 195.06,23.97 194.47,23.97 C194,23.97 193.39,23.73 193.07,23.08 L192.22,23.89 C192.57,24.4 193.29,25.15 194.52,25.15 C195.9,25.15 196.84,24.26 196.84,22.96 C196.84,22.28 196.57,21.83 196.27,21.56 C195.93,21.25 195.44,21.07 194.92,20.89 C194.5,20.74 194.28,20.66 194.12,20.51 C193.96,20.37 193.91,20.22 193.91,20.06 C193.91,19.72 194.13,19.28 194.83,19.28 C195.07,19.28 195.53,19.33 195.92,19.85 L196.6,18.96 Z M201.62,18.18 C199.52,18.18 198.06,19.64 198.06,21.67 C198.06,23.7 199.52,25.15 201.62,25.15 C203.72,25.15 205.18,23.7 205.18,21.67 C205.18,19.64 203.72,18.18 201.62,18.18 L201.62,18.18 Z M201.62,23.97 C200.32,23.97 199.4,23.02 199.4,21.67 C199.4,20.32 200.32,19.36 201.62,19.36 C202.92,19.36 203.84,20.32 203.84,21.67 C203.84,23.02 202.92,23.97 201.62,23.97 L201.62,23.97 Z M211.62,23.24 C211.23,23.7 210.68,23.97 210.06,23.97 C208.94,23.97 207.8,23.17 207.8,21.69 C207.8,20.46 208.67,19.36 210.01,19.36 C210.25,19.36 211.01,19.41 211.62,20.11 L211.62,18.59 C211.01,18.26 210.45,18.18 209.98,18.18 C209.03,18.18 208.2,18.43 207.53,19.06 C206.96,19.59 206.46,20.46 206.46,21.67 C206.46,22.65 206.76,23.48 207.53,24.22 C208.09,24.75 208.8,25.15 209.97,25.15 C210.69,25.15 211.22,24.97 211.62,24.76 L211.62,23.24 Z M213.22,18.33 L213.22,25 L214.52,25 L214.52,18.33 L213.22,18.33 Z M220.98,25 L222.38,25 L219.59,18.33 L218.57,18.33 L215.7,25 L217.11,25 L217.7,23.6 L220.39,23.6 L220.98,25 Z M218.11,22.54 L219.06,20.14 L220.01,22.54 L218.11,22.54 Z M226.82,19.45 L226.82,18.33 L222.52,18.33 L222.52,19.45 L224.02,19.45 L224.02,25 L225.32,25 L225.32,19.45 L226.82,19.45 Z M228.04,18.33 L228.04,25 L229.34,25 L229.34,18.33 L228.04,18.33 Z M234.5,18.18 C232.4,18.18 230.94,19.64 230.94,21.67 C230.94,23.7 232.4,25.15 234.5,25.15 C236.6,25.15 238.06,23.7 238.06,21.67 C238.06,19.64 236.6,18.18 234.5,18.18 L234.5,18.18 Z M234.5,23.97 C233.2,23.97 232.28,23.02 232.28,21.67 C232.28,20.32 233.2,19.36 234.5,19.36 C235.8,19.36 236.72,20.32 236.72,21.67 C236.72,23.02 235.8,23.97 234.5,23.97 L234.5,23.97 Z M240.96,25 L240.96,20.54 L245.02,25 L245.92,25 L245.92,18.33 L244.62,18.33 L244.62,22.78 L240.56,18.33 L239.66,18.33 L239.66,25 L240.96,25 Z" id="Ukrainian-Venture-Ca" fill="#F16528" opacity="0.600000024"></path>
                    <rect id="Rectangle-6" fill="#DDE9F0" x="84" y="0" width="1" height="30"></rect>
                    <path d="M0.28,4.99 L0.28,17.23 C0.28,19.12 0.58,21.04 1.78,22.57 C3.22,24.46 5.74,25.45 8.32,25.45 C10.9,25.45 13.42,24.46 14.86,22.57 C16.06,21.04 16.36,19.12 16.36,17.23 L16.36,4.99 L12.46,4.99 L12.46,17.56 C12.46,19.09 11.95,20.02 11.5,20.53 C10.93,21.22 9.88,21.91 8.32,21.91 C6.76,21.91 5.71,21.22 5.14,20.53 C4.69,20.02 4.18,19.09 4.18,17.56 L4.18,4.99 L0.28,4.99 Z M17.7,4.99 L26.1,25 L28.44,25 L36.9,4.99 L32.64,4.99 L27.3,18.43 L21.96,4.99 L17.7,4.99 Z M52.76,19.72 C51.59,21.1 49.94,21.91 48.08,21.91 C44.72,21.91 41.3,19.51 41.3,15.07 C41.3,11.38 43.91,8.08 47.93,8.08 C48.65,8.08 50.93,8.23 52.76,10.33 L52.76,5.77 C50.93,4.78 49.25,4.54 47.84,4.54 C44.99,4.54 42.5,5.29 40.49,7.18 C38.78,8.77 37.28,11.38 37.28,15.01 C37.28,17.95 38.18,20.44 40.49,22.66 C42.17,24.25 44.3,25.45 47.81,25.45 C49.97,25.45 51.56,24.91 52.76,24.28 L52.76,19.72 Z M68.98,25 L73.18,25 L64.81,4.99 L61.75,4.99 L53.14,25 L57.37,25 L59.14,20.8 L67.21,20.8 L68.98,25 Z M60.37,17.62 L63.22,10.42 L66.07,17.62 L60.37,17.62 Z" id="UVCA" fill="#2677BB"></path>
                </g>
            </g>
        </g>
    </g>
</svg>